<?xml version="1.0" encoding="utf-8"?>
<!-- Generator: Adobe Illustrator 23.1.0, SVG Export Plug-In . SVG Version: 6.00 Build 0)  -->
<svg version="1.1" xmlns="http://www.w3.org/2000/svg" xmlns:xlink="http://www.w3.org/1999/xlink" x="0px" y="0px"
	 viewBox="0 0 595.3 595.3" enable-background="new 0 0 595.3 595.3" xml:space="preserve">
<g id="Capa_1">
</g>
<g id="Capa_2">
	<path fill="#E1569A" d="M454.3,188.5c0,0,133.7-13.6,81.7-146.6c0,0-122.5-64.1-157.8,73.3c0,0-1.6,33.2,4,42.8
		c0,0-1.6,27.2-20.8,30.4c0,0-13.6,4.8-28.8,0c0,0-112.9-8.8-106.5,100.9c0,0,9.6,32-16,59.3c0,0-97.7,104.1-141.8,176.2
		c0,0-28,2.4-22.4,29.6c0,0-4,17.6,15.2,8c0,0,20.7-1.2,18.4-26.4c0,0,62.5-98.5,137.8-174.6c0,0,19.2-27.2,52.1-23.2
		c0,0,92.9,13.6,108.9-55.3c0,0,11.6-22.4,2.4-60.9c0,0-5.6-32,30.4-35.2C411,186.9,441.3,190.9,454.3,188.5z"/>
	<g>
		<path fill="#8F2E61" d="M267.4,336.6c11.1,1.1,22.4,1,33.5-0.1c5.6-0.6,11.1-1.5,16.5-2.7c5.4-1.2,10.8-2.8,15.9-5
			c5.1-2.1,10.1-4.6,14.7-7.7c4.6-3.1,8.8-6.7,12.5-10.8c3.8-4,6.7-8.8,9.2-13.7l1.8-3.7l1.4-3.9c0.2-0.6,0.5-1.3,0.7-1.9l0.6-2
			l1.1-4l0-0.1l0.1-0.1c1.9-4.2,3.2-8.8,4.2-13.4c0.9-4.6,1.5-9.4,1.7-14.1l0.1-1.8l0-1.8l0-3.6l-0.2-3.6c-0.1-1.2-0.1-2.4-0.3-3.6
			c-0.3-2.4-0.4-4.7-0.8-7.1c-0.4-2.4-0.7-4.7-1.2-7.1l-0.7-3.5c-0.1-0.6-0.2-1.2-0.3-1.8c-0.1-0.6-0.1-1.2-0.1-1.8
			c-0.1-2.4,0-4.9,0.4-7.3c0.7-4.8,2.5-9.5,5.5-13.4c1.5-1.9,3.2-3.7,5.2-5.1c2-1.4,4.1-2.6,6.3-3.6c4.5-1.8,9.2-2.8,14-3.1
			c-4.8,0.5-9.5,1.6-13.8,3.6c-2.2,1-4.2,2.2-6.1,3.7c-1.9,1.5-3.5,3.2-4.9,5.1c-2.7,3.8-4.4,8.4-5,13c-0.3,2.3-0.4,4.7-0.3,7
			c0.1,1.2,0.2,2.3,0.5,3.5l0.8,3.5c2,9.4,3.1,19.1,2.7,28.7c-0.1,4.8-0.7,9.7-1.6,14.4c-0.9,4.8-2.2,9.4-4.3,14l0.1-0.2
			c-2.6,11-7.6,21.6-15.3,30c-3.8,4.2-8.2,7.9-12.9,11c-4.8,3.1-9.8,5.7-15.1,7.7c-5.3,2.1-10.7,3.6-16.2,4.8
			c-5.5,1.2-11.1,2-16.7,2.4c-5.6,0.5-11.2,0.6-16.8,0.5C278.5,337.8,272.9,337.5,267.4,336.6z"/>
	</g>
	<g>
		<path fill="#8F2E61" d="M45.4,554.4c-0.4,2-0.4,4.1,0,6c0.2,1,0.6,1.9,1.2,2.7c0.6,0.8,1.5,1.3,2.4,1.6c1.9,0.6,4,0.2,5.9-0.3
			c1.9-0.6,3.8-1.4,5.6-2.3l0,0l0.1,0c2.9-0.3,5.8-1.3,8.4-2.8c2.5-1.5,4.7-3.6,6.3-6.1c0.8-1.3,1.4-2.6,1.9-4
			c0.5-1.4,0.9-2.8,1.1-4.3c0.5-2.9,0.5-5.9,0.2-8.9l0-0.2l0.1-0.2c10-15.7,20.4-31.1,31.2-46.2c10.8-15.1,21.9-30,33.3-44.7
			c11.4-14.7,23.3-29,35.4-43l9.2-10.5c3.1-3.5,6.3-6.8,9.4-10.3l4.7-5.1c1.6-1.7,3.2-3.3,4.8-5l9.7-10l-0.1,0.1
			c3.1-4,6.7-7.5,10.6-10.7c3.9-3.1,8.2-5.8,12.8-7.8c2.3-1,4.6-1.9,7-2.6c2.4-0.7,4.8-1.3,7.3-1.6c4.9-0.8,10-0.7,14.9-0.1
			c-4.9-0.5-9.9-0.4-14.8,0.5c-2.4,0.4-4.8,1-7.2,1.8c-2.3,0.8-4.6,1.7-6.9,2.8c-4.4,2.2-8.6,4.9-12.4,8c-3.8,3.1-7.3,6.7-10.2,10.6
			l0,0l0,0l-9.6,10.1c-1.6,1.7-3.2,3.3-4.8,5.1l-4.7,5.2l-9.3,10.3l-9.1,10.5c-12.1,14.1-23.9,28.4-35.2,43.1
			c-11.4,14.6-22.6,29.4-33.4,44.5c-10.8,15.1-21.5,30.3-31.6,45.8l0.1-0.4c0.3,3,0.2,6.1-0.3,9.2c-0.2,1.5-0.7,3-1.2,4.5
			c-0.5,1.4-1.2,2.8-2.1,4.1c-1.7,2.6-4,4.7-6.7,6.3c-2.7,1.5-5.6,2.5-8.7,2.7l0.1,0c-1.8,0.9-3.7,1.7-5.7,2.2
			c-2,0.5-4.1,0.9-6.1,0.2c-1-0.3-1.9-1-2.5-1.8c-0.6-0.8-1-1.8-1.2-2.8C44.9,558.4,45,556.3,45.4,554.4z"/>
	</g>
	<g>
		<path fill="#8F2E61" d="M71.6,527.4c-3.5,1-6.7,2.3-9.7,4c-3,1.7-5.7,3.7-7.8,6.3c-2.1,2.6-3.5,5.6-4.2,8.9
			c-0.7,3.3-0.8,6.8-0.7,10.4c-1.3-3.4-1.9-7.1-1.6-10.8c0.3-3.7,1.8-7.5,4.2-10.5c2.4-3,5.7-5.2,9.1-6.5
			C64.3,527.9,68,527.2,71.6,527.4z"/>
	</g>
	<g>
		<path fill="#8F2E61" d="M332.6,199.4c-6.1,0.1-12.2,0.7-18.3,1.6c-6,0.9-12,2.2-17.8,4c-5.8,1.8-11.4,3.9-16.8,6.7
			c-1.3,0.7-2.7,1.4-3.9,2.2l-3.8,2.4l-3.6,2.6c-1.2,0.9-2.3,1.9-3.4,2.9c-4.5,3.9-8.4,8.4-11.7,13.4c-3.4,4.9-5.7,10.5-7.8,16.1
			c-3.8,11.4-5.3,23.7-5.4,36c-1.5-12.2-1-24.8,2.4-36.9l0.3-1.1l0.4-1.1l0.8-2.2c0.5-1.5,1-3,1.8-4.4c0.7-1.4,1.3-2.9,2-4.3
			l2.4-4.1c3.4-5.3,7.5-10.2,12.3-14.4c9.5-8.4,21.3-13.7,33.4-16.7c6-1.5,12.2-2.4,18.4-2.9C320.3,198.6,326.5,198.6,332.6,199.4z"
			/>
	</g>
	<g>
		<path fill="#8F2E61" d="M535.1,49.9c-7.2-3.2-14.6-5.6-22.2-7.6c-7.5-1.9-15.2-3.4-22.9-4c-7.7-0.7-15.5-0.6-23.1,0.4
			c-7.6,1-15,3.1-22,6.2c-7,3.1-13.4,7.4-19.1,12.4c-2.8,2.5-5.5,5.3-8,8.2c-2.5,2.9-4.8,6-6.9,9.2C406.6,81,403.1,87.9,400,95
			c-3.1,7.1-5.5,14.5-7.6,22l0-0.2c-0.2,3.3-0.3,6.5-0.4,9.8c-0.1,3.3-0.1,6.6,0,9.9c0.1,3.3,0.2,6.6,0.6,9.8
			c0.4,3.2,0.8,6.5,2.3,9.5c-0.4-0.7-0.8-1.4-1.1-2.2c-0.3-0.8-0.6-1.5-0.8-2.3c-0.2-0.8-0.4-1.6-0.6-2.4l-0.5-2.4
			c-0.6-3.3-1-6.6-1.3-9.9c-0.5-6.6-0.7-13.2-0.6-19.9l0-0.1l0-0.2c1.8-7.7,4.1-15.3,7-22.6c2.9-7.4,6.4-14.5,10.7-21.2
			c2.2-3.3,4.6-6.6,7.1-9.6c2.6-3,5.4-5.9,8.4-8.6c6-5.3,12.8-9.8,20.2-12.9c7.4-3.2,15.2-5.2,23.2-6.1c7.9-0.9,15.9-0.7,23.8,0.3
			c7.9,1,15.6,2.8,23.1,5.2c3.8,1.2,7.5,2.6,11.1,4.1C528.1,46.3,531.7,48,535.1,49.9z"/>
	</g>
	<g>
		<path fill="#8F2E61" d="M409.1,186.5c3.6,0.4,7.2,0.6,10.8,0.9c3.6,0.3,7.2,0.5,10.8,0.6c3.6,0.1,7.2,0.2,10.8,0.1
			c3.6-0.1,7.2-0.2,10.6-0.9l0.1,0c8.2-1.2,16.3-3.2,24.2-5.8c7.9-2.6,15.6-5.8,22.8-9.8c7.3-4,14.1-8.7,20.1-14.3
			c6-5.6,11.3-12,15.3-19.2c2-3.6,3.7-7.3,5.2-11.2c1.4-3.9,2.5-7.8,3.3-11.9c1.6-8.1,2.1-16.4,1.6-24.7c-0.4-8.3-1.8-16.5-3.6-24.7
			c-1.8-8.1-4.4-16.1-7.1-24c6.5,15.4,11.4,31.7,12.8,48.6c0.3,4.2,0.5,8.4,0.2,12.7c0,1.1-0.1,2.1-0.2,3.2
			c-0.1,1.1-0.2,2.1-0.3,3.2c-0.3,2.1-0.5,4.2-0.9,6.3c-1.5,8.4-4.3,16.5-8.5,24c-4.1,7.5-9.5,14.2-15.8,20
			c-6.3,5.8-13.3,10.6-20.8,14.6c-7.5,4-15.4,7.2-23.4,9.7c-4,1.2-8.1,2.3-12.2,3.2c-4.1,0.9-8.3,1.6-12.5,2.1l0.1,0
			c-3.7,0.6-7.3,0.6-11,0.6c-3.6-0.1-7.3-0.3-10.9-0.6c-3.6-0.3-7.2-0.6-10.8-1.1C416.3,187.6,412.7,187,409.1,186.5z"/>
	</g>
</g>
</svg>
