<svg width="253" height="27" viewBox="0 0 253 27" fill="none" xmlns="http://www.w3.org/2000/svg">
<path d="M0.750156 1.232H7.95016V26H0.750156V1.232ZM9.46216 20.204H17.1662V26H9.46216V20.204ZM25.8427 1.232H26.4547L29.2987 11.096L25.1587 26H17.9587L25.8427 1.232ZM33.9427 21.608H27.9307L29.4427 16.064H32.3227L28.0747 1.232H34.6627L42.5467 26H35.2027L33.9427 21.608ZM54.2931 1.232H61.4931V26H54.2931V1.232ZM63.0051 20.492H64.4811C65.1531 20.492 65.6571 20.48 65.9931 20.456C66.3531 20.408 66.6171 20.312 66.7851 20.168C66.9531 20.024 67.0611 19.82 67.1091 19.556C67.1811 19.292 67.2171 18.908 67.2171 18.404C67.2171 17.876 67.1811 17.48 67.1091 17.216C67.0611 16.952 66.9531 16.748 66.7851 16.604C66.4971 16.364 65.7291 16.244 64.4811 16.244H63.0051V10.736H64.2651C64.9371 10.736 65.4411 10.724 65.7771 10.7C66.1371 10.652 66.4011 10.556 66.5691 10.412C66.7371 10.268 66.8451 10.076 66.8931 9.836C66.9651 9.572 67.0011 9.212 67.0011 8.756C67.0011 8.276 66.9651 7.916 66.8931 7.676C66.8451 7.412 66.7371 7.208 66.5691 7.064C66.4011 6.92 66.1371 6.836 65.7771 6.812C65.4411 6.764 64.9371 6.74 64.2651 6.74H63.0051V1.232H67.1091C71.9331 1.232 74.3451 3.308 74.3451 7.46C74.3451 9.212 73.9971 10.532 73.3011 11.42C72.6291 12.308 71.5491 12.932 70.0611 13.292V13.436C71.6211 13.796 72.7371 14.36 73.4091 15.128C74.1771 16.04 74.5611 17.456 74.5611 19.376C74.5611 21.584 73.9731 23.24 72.7971 24.344C71.6211 25.448 69.7371 26 67.1451 26H63.0051V20.492ZM92.1623 13.616C92.1623 11.528 92.1503 10.16 92.1263 9.512C92.0783 8.528 91.9463 7.82 91.7303 7.388C91.5143 6.932 91.1663 6.656 90.6863 6.56C90.2063 6.488 89.5223 6.452 88.6343 6.452C87.6023 6.452 86.9303 6.5 86.6183 6.596V0.979998C86.8343 0.955998 87.1583 0.943999 87.5903 0.943999H88.6343C91.3223 0.943999 93.3983 1.16 94.8623 1.592C96.3503 2 97.4303 2.684 98.1023 3.644C98.7263 4.532 99.1103 5.696 99.2543 7.136C99.4223 8.576 99.5063 10.736 99.5063 13.616C99.5063 16.136 99.4463 18.08 99.3263 19.448C99.2303 20.792 98.9663 21.908 98.5343 22.796C98.0543 23.804 97.3103 24.572 96.3023 25.1C95.3183 25.628 93.9383 25.976 92.1623 26.144V13.616ZM88.6343 26.288C85.1303 26.288 82.6103 25.904 81.0743 25.136C80.2823 24.752 79.6583 24.236 79.2023 23.588C78.7463 22.94 78.4103 22.136 78.1943 21.176C78.0023 20.336 77.8823 19.376 77.8343 18.296C77.7863 17.192 77.7623 15.632 77.7623 13.616C77.7623 11.096 77.8103 9.164 77.9063 7.82C78.0263 6.476 78.3023 5.348 78.7343 4.436C79.2143 3.452 79.9463 2.696 80.9303 2.168C81.9143 1.64 83.3063 1.28 85.1063 1.088V13.616C85.1063 15.032 85.1303 16.388 85.1783 17.684C85.2263 18.668 85.3463 19.388 85.5383 19.844C85.7543 20.3 86.1023 20.564 86.5823 20.636C86.9903 20.732 87.6743 20.78 88.6343 20.78C89.6183 20.78 90.2903 20.744 90.6503 20.672V26.252C90.4343 26.276 90.1103 26.288 89.6783 26.288H88.6343ZM103.547 2.24V1.232H110.747L124.643 24.956V26H117.479L103.547 2.24ZM117.803 10.268V1.232H124.643V21.968L117.803 10.268ZM103.547 5.228L110.387 16.928V26H103.547V5.228ZM129.317 2.24V1.232H136.517L150.413 24.956V26H143.249L129.317 2.24ZM143.573 10.268V1.232H150.413V21.968L143.573 10.268ZM129.317 5.228L136.157 16.928V26H129.317V5.228ZM155.086 1.232H162.286V26H155.086V1.232ZM163.798 1.232H172.942V6.74H163.798V1.232ZM163.798 10.736H171.25V16.244H163.798V10.736ZM163.798 20.492H172.942V26H163.798V20.492ZM184.605 1.232H204.873V6.992H184.605V1.232ZM191.121 8.432H198.321V26H191.121V8.432ZM221.291 13.616C221.291 11.528 221.279 10.16 221.255 9.512C221.207 8.528 221.075 7.82 220.859 7.388C220.643 6.932 220.295 6.656 219.815 6.56C219.335 6.488 218.651 6.452 217.763 6.452C216.731 6.452 216.059 6.5 215.747 6.596V0.979998C215.963 0.955998 216.287 0.943999 216.719 0.943999H217.763C220.451 0.943999 222.527 1.16 223.991 1.592C225.479 2 226.559 2.684 227.231 3.644C227.855 4.532 228.239 5.696 228.383 7.136C228.551 8.576 228.635 10.736 228.635 13.616C228.635 16.136 228.575 18.08 228.455 19.448C228.359 20.792 228.095 21.908 227.663 22.796C227.183 23.804 226.439 24.572 225.431 25.1C224.447 25.628 223.067 25.976 221.291 26.144V13.616ZM217.763 26.288C214.259 26.288 211.739 25.904 210.203 25.136C209.411 24.752 208.787 24.236 208.331 23.588C207.875 22.94 207.539 22.136 207.323 21.176C207.131 20.336 207.011 19.376 206.963 18.296C206.915 17.192 206.891 15.632 206.891 13.616C206.891 11.096 206.939 9.164 207.035 7.82C207.155 6.476 207.431 5.348 207.863 4.436C208.343 3.452 209.075 2.696 210.059 2.168C211.043 1.64 212.435 1.28 214.235 1.088V13.616C214.235 15.032 214.259 16.388 214.307 17.684C214.355 18.668 214.475 19.388 214.667 19.844C214.883 20.3 215.231 20.564 215.711 20.636C216.119 20.732 216.803 20.78 217.763 20.78C218.747 20.78 219.419 20.744 219.779 20.672V26.252C219.563 26.276 219.239 26.288 218.807 26.288H217.763ZM237.585 17.828L237.261 17.108L236.325 15.272L235.425 13.364C235.329 13.196 235.209 12.944 235.065 12.608L233.589 9.548L229.629 1.232H236.973L244.785 17.864V26H237.585V17.828ZM242.229 8.9L245.577 1.232H252.777L249.969 7.064L248.781 9.512L246.513 14.228L245.613 16.1L242.229 8.9Z" fill="#F870E2"/>
</svg>
