<?xml version="1.0" encoding="utf-8"?>
<!-- Generator: Adobe Illustrator 23.1.0, SVG Export Plug-In . SVG Version: 6.00 Build 0)  -->
<svg version="1.1" xmlns="http://www.w3.org/2000/svg" xmlns:xlink="http://www.w3.org/1999/xlink" x="0px" y="0px"
	 viewBox="0 0 595.3 595.3" enable-background="new 0 0 595.3 595.3" xml:space="preserve">
<g id="Capa_1">
</g>
<g id="Capa_2">
	<path fill="#94B1C9" d="M548.5,191.9c0,0-63.8-98.4-165.8-143.9c0,0-1.8-32.8-36.4-16.4c0,0-74.7,5.5-74.7,78.3
		c0,0-14.6,14.6-5.5,34.6c0,0-143.9-18.2-218.6,123.9c0,0-80.1,174.9,83.8,269.6c0,0,165.6,89.3,282.3-61.9
		c0,0,49.2-69.2,38.3-163.9c0,0,23.7,23.7,80.1-40.1C532.1,272,595.9,193.7,548.5,191.9z M239.3,514.5c-85.6,0-155-71.8-155-160.3
		c0-88.6,69.4-160.3,155-160.3c85.6,0,155,71.8,155,160.3C394.3,442.7,324.9,514.5,239.3,514.5z"/>
	<g>
		<path fill="#596F7D" d="M124.3,246.6c4.2-5.1,8.6-10,13.4-14.5c4.8-4.6,9.9-8.7,15.3-12.6c5.4-3.9,11.1-7.3,16.9-10.3
			c5.9-3.1,12-5.7,18.3-7.9c12.5-4.4,25.7-7,38.9-8.1c13.2-1.1,26.6-0.8,39.8,1.2c26.4,4,51.5,15.2,72.5,31.7
			c21,16.5,37.8,38.3,48.4,62.8c10.6,24.5,15,51.6,12.9,78.2c-2.1,26.6-10.8,52.7-25.3,75c-14.4,22.4-34.5,41.1-57.8,53.8
			c-23.3,12.7-49.8,19.3-76.2,18.8c13.2-0.2,26.3-2.1,39-5.5c6.3-1.7,12.6-3.9,18.6-6.3c6.1-2.5,12-5.4,17.6-8.7
			c22.8-12.9,42.3-31.6,56.1-53.7c6.9-11.1,12.5-23,16.6-35.3c2-6.2,3.7-12.5,5-18.9c1.2-6.4,2.1-12.9,2.6-19.4
			c0.9-13,0.4-26.1-1.8-39c-1.1-6.4-2.5-12.8-4.4-19c-1.8-6.2-4.1-12.4-6.7-18.3c-10.3-23.9-26.6-45.2-47.1-61.4
			c-10.2-8.1-21.4-15-33.3-20.3c-5.9-2.7-12.1-4.9-18.3-6.8c-6.2-1.9-12.6-3.4-19-4.5c-12.9-2.2-26-2.7-39.1-1.8
			c-13.1,0.9-26,3.3-38.5,7.5c-6.2,2-12.3,4.5-18.2,7.4c-5.9,2.9-11.6,6.2-17,9.9C142.8,227.7,133,236.6,124.3,246.6z"/>
	</g>
	<g>
		<path fill="#596F7D" d="M297,159.1l16.2,15.9c5.4,5.3,10.8,10.6,16.3,15.9c10.9,10.5,21.7,21.1,32.8,31.5
			c11,10.4,22.1,20.7,33.4,30.9c2.8,2.6,5.7,5,8.5,7.6l4.3,3.8l4.3,3.7c2.9,2.5,5.7,5,8.6,7.4c2.9,2.4,5.8,4.8,8.7,7.3
			c-6.1-4.5-12.1-9.2-18-13.9l-4.4-3.6l-4.3-3.7c-2.9-2.5-5.8-4.9-8.7-7.4c-5.8-4.9-11.4-10-17-15.1c-2.8-2.5-5.6-5.1-8.4-7.7
			c-2.8-2.6-5.6-5.1-8.3-7.7c-5.5-5.2-11-10.5-16.4-15.8l-8.1-8c-2.7-2.7-5.4-5.3-8-8.1c-5.3-5.4-10.6-10.8-15.9-16.3
			C307.3,170.2,302.1,164.7,297,159.1z"/>
	</g>
	<g>
		<path fill="#596F7D" d="M534.5,193.8c-5.3-6.7-10.7-13.2-16.4-19.5c-5.6-6.4-11.3-12.7-17.1-18.9c-11.7-12.3-23.7-24.3-36.5-35.5
			c-12.6-11.4-25.8-22-39.6-31.9c-13.8-9.9-28.3-18.8-43.4-26.6c3.8,1.8,7.7,3.5,11.5,5.6c1.9,1,3.8,1.9,5.7,3l5.6,3.1
			c1.9,1,3.7,2.2,5.5,3.3c1.8,1.1,3.7,2.2,5.4,3.4l5.4,3.5l5.3,3.6c7,4.8,13.9,9.9,20.5,15.2c6.7,5.3,13.2,10.8,19.6,16.5
			c12.7,11.4,24.8,23.4,36.3,36c5.7,6.3,11.3,12.7,16.8,19.3c2.7,3.3,5.4,6.6,8,10C529.5,186.9,532.1,190.3,534.5,193.8z"/>
	</g>
	<g>
		<path fill="#596F7D" d="M351.1,34.9c-0.6-0.3-1.2-0.5-1.9-0.5c-0.7,0-1.3,0-2,0c-1.3,0.1-2.6,0.3-3.9,0.6
			c-2.6,0.6-5.1,1.4-7.5,2.4c-4.9,1.9-9.7,4.2-14.2,6.9c-9,5.4-17.3,12.1-24.2,20.1c-7,7.9-12.5,17-16.3,26.9
			c-3.8,9.8-5.6,20.4-6,31c0-5.3,0.4-10.6,1.2-15.8c0.4-2.6,1-5.2,1.7-7.8c0.7-2.6,1.5-5.1,2.4-7.6c3.6-10,9.3-19.3,16.3-27.3
			c7-8,15.4-14.8,24.6-20.1c4.6-2.6,9.4-5,14.4-6.7c2.5-0.9,5.1-1.6,7.7-2.2c1.3-0.3,2.6-0.5,3.9-0.5c0.7,0,1.3,0,2,0
			C349.9,34.4,350.6,34.5,351.1,34.9z"/>
	</g>
	<g>
		<path fill="#596F7D" d="M462.1,310.5c0.6,0.4,1.4,0.5,2.1,0.5c0.7,0,1.5-0.1,2.2-0.2c1.5-0.3,2.9-0.7,4.3-1.2
			c2.8-1,5.5-2.2,8.2-3.5c5.3-2.7,10.4-5.8,15.2-9.2c9.7-6.8,18.8-14.6,26.8-23.4c8.1-8.7,15.2-18.3,21-28.7
			c5.8-10.4,10.2-21.5,12.8-33.2c-1.1,5.9-2.7,11.6-4.8,17.2c-2.1,5.6-4.5,11.1-7.4,16.3c-5.7,10.5-12.9,20.2-20.9,29
			c-8.2,8.7-17.2,16.6-27.1,23.3c-5,3.3-10.1,6.4-15.5,9c-2.7,1.3-5.5,2.4-8.3,3.3c-1.4,0.4-2.9,0.8-4.4,1.1
			c-0.7,0.1-1.5,0.2-2.2,0.1C463.5,311.1,462.7,310.9,462.1,310.5z"/>
	</g>
	<g>
		<path fill="#596F7D" d="M36.3,352c-0.3,2.9-0.4,5.8-0.4,8.6c0,1.4,0,2.9,0,4.3c0,1.4,0,2.9,0.1,4.3c0.1,5.8,0.5,11.5,1.2,17.2
			c1.2,11.5,3.2,22.8,6.3,33.9c3.1,11.1,6.9,21.9,11.9,32.3c4.9,10.4,10.9,20.2,17.7,29.5l2.6,3.4c0.9,1.1,1.7,2.3,2.7,3.4l5.6,6.6
			c1.9,2.1,4,4.1,6,6.2l1.5,1.5l0.7,0.8l0.8,0.7l3.2,2.9l3.2,2.9c0.5,0.5,1.1,1,1.6,1.4l1.7,1.3l6.8,5.4c1.1,0.9,2.3,1.7,3.5,2.5
			l3.5,2.5l3.5,2.5c1.2,0.8,2.4,1.5,3.7,2.3l7.4,4.5c0.6,0.4,1.2,0.7,1.9,1.1l1.9,1l3.8,2l3.8,2c0.6,0.3,1.3,0.7,1.9,1l2,0.9
			l7.9,3.5l2,0.9c0.7,0.3,1.3,0.6,2,0.8l4,1.5l8.1,3.1c1.3,0.5,2.7,0.9,4.1,1.4l4.1,1.3l8.3,2.6c-5.5-1.6-11.1-3-16.7-4.8l-8.2-2.9
			l-4.1-1.4c-0.7-0.2-1.4-0.5-2-0.8l-2-0.8l-8-3.4l-2-0.8c-0.7-0.3-1.3-0.6-1.9-1l-3.9-1.9l-3.9-1.9l-1.9-1c-0.7-0.3-1.3-0.6-1.9-1
			l-7.5-4.4c-1.2-0.7-2.5-1.4-3.7-2.2l-3.6-2.4l-3.6-2.4c-1.2-0.8-2.4-1.6-3.5-2.5l-6.8-5.4l-1.7-1.3c-0.6-0.5-1.1-1-1.6-1.4
			l-3.2-2.9l-3.2-2.9l-0.8-0.7l-0.8-0.8l-1.5-1.6c-2-2.1-4.1-4.1-6.1-6.2l-5.7-6.6c-1-1.1-1.8-2.2-2.7-3.4l-2.6-3.5
			c-13.7-18.7-23.8-40.1-29.5-62.6c-2.9-11.2-4.8-22.7-5.8-34.2c-0.5-5.8-0.7-11.5-0.7-17.3C35.4,363.5,35.6,357.7,36.3,352z"/>
	</g>
</g>
</svg>
