<?xml version="1.0" encoding="utf-8"?>
<!-- Generator: Adobe Illustrator 23.1.0, SVG Export Plug-In . SVG Version: 6.00 Build 0)  -->
<svg version="1.1" xmlns="http://www.w3.org/2000/svg" xmlns:xlink="http://www.w3.org/1999/xlink" x="0px" y="0px"
	 viewBox="0 0 595.3 595.3" enable-background="new 0 0 595.3 595.3" xml:space="preserve">
<g id="Capa_1">
</g>
<g id="Capa_2">
	<path fill="#DEC0B8" d="M437.4,76.3l-32.3-23.9c0,0-47.7-56.1-103.9,4.9c0,0-23.2,21.1-37.2,97.6c0,0-13.3,53.3-44.2,107.4
		l-66.7,95.5c0,0-61.6,73.8-54.5,156.2c0.3,3.5,1.1,6.9,2.3,10.1c6.6,17.3,33.1,66.2,110.5,24.6c0,0,41.4-23.8,64.3-88.7
		c2.2-6.3,3.4-12.9,3.6-19.5c0.2-12.4,2.7-38.4,17.1-72.1c0,0,38.6-164.9,97.6-164.9c0,0-31.8-22.8-11.1-75.2
		c0.3-0.8,0.6-1.6,0.8-2.4C385.7,119,398.6,82,437.4,76.3z"/>
	<g>
		<path fill="#906B65" d="M101,524.1c3.3,6.2,6.8,12.4,11.1,18.1c4.3,5.6,9.4,10.6,15.4,14.4c6,3.7,12.8,6.1,19.8,7.1
			c7,0.9,14.1,0.6,21.1-0.6c13.9-2.4,27.2-7.9,39.7-14.3l2.3-1.2c0.8-0.4,1.6-0.8,2.3-1.3c1.5-1,2.9-2,4.3-3
			c2.8-2.1,5.6-4.3,8.2-6.7c5.3-4.7,10.2-9.8,14.8-15.1c9.2-10.7,17-22.6,23.6-35.1c3.3-6.3,6.2-12.7,8.8-19.3
			c0.7-1.6,1.3-3.3,1.9-4.9c0.6-1.7,1.2-3.3,1.8-5c1.1-3.3,1.9-6.8,2.4-10.2c0.3-1.7,0.4-3.5,0.6-5.2c0.1-1.7,0.1-3.5,0.2-5.3
			c0.2-3.6,0.7-7.1,1.2-10.6c1.1-7,2.5-14,4.2-20.8c3.3-13.8,7.5-27.3,12.3-40.7l0,0l1.8-6.8l0,0l0,0c1.2-3.7,2.1-7.6,3.2-11.4
			c1.1-3.8,2.1-7.6,3.2-11.4c2.2-7.6,4.5-15.1,7-22.6c5-15,10.5-29.8,17.1-44.2c6.6-14.3,14.1-28.4,23.9-40.8
			c4.9-6.2,10.5-11.9,17-16.4c3.3-2.2,6.8-4.1,10.5-5.4c3.7-1.3,7.7-2,11.6-2c-3.9,0-7.9,0.7-11.6,2.1c-3.7,1.3-7.2,3.2-10.4,5.5
			c-6.5,4.5-12,10.3-16.9,16.4c-4.9,6.2-9.1,12.9-13,19.7c-3.9,6.9-7.4,13.9-10.7,21.1c-6.5,14.4-12,29.2-16.9,44.1
			c-2.5,7.5-4.8,15-6.9,22.6c-1.1,3.8-2.2,7.6-3.2,11.4c-1.1,3.8-2,7.6-3.2,11.4l0,0l-1.8,6.8l0,0l0,0c-4.7,13.3-8.8,26.9-12.1,40.6
			c-1.6,6.9-3.1,13.8-4.1,20.8c-0.5,3.5-1,7-1.2,10.5c-0.1,1.7-0.1,3.5-0.2,5.3c-0.1,1.8-0.3,3.6-0.6,5.3c-0.5,3.5-1.4,7-2.5,10.4
			c-0.6,1.7-1.2,3.3-1.8,5c-0.6,1.7-1.3,3.3-1.9,5c-2.6,6.6-5.6,13-8.9,19.3c-6.6,12.6-14.5,24.4-23.8,35.2
			c-4.6,5.4-9.6,10.5-14.9,15.2c-2.7,2.3-5.4,4.6-8.3,6.7c-1.4,1-2.9,2.1-4.4,3c-0.7,0.5-1.6,0.9-2.3,1.3l-2.4,1.2
			c-12.6,6.4-25.9,11.9-39.9,14.3c-7,1.2-14.2,1.5-21.2,0.5c-7-1-13.9-3.4-19.9-7.3c-6-3.8-11.1-8.9-15.4-14.5
			C107.7,536.6,104.3,530.3,101,524.1z"/>
	</g>
	<g>
		<path fill="#906B65" d="M306.3,52.1c-1.8,1.5-3.4,3.2-4.9,5c-1.5,1.8-2.9,3.6-4.3,5.5c-2.7,3.8-5.1,7.8-7.4,11.9
			c-4.5,8.2-8.1,16.9-11.3,25.7c-0.8,2.2-1.5,4.4-2.3,6.6c-0.7,2.2-1.4,4.5-2.1,6.7c-0.7,2.2-1.3,4.5-1.9,6.7
			c-0.6,2.3-1.2,4.5-1.8,6.8c-1.1,4.5-2.1,9.1-3.1,13.7c-0.5,2.3-0.9,4.6-1.3,6.9c-0.4,2.3-1,4.6-1.5,6.9
			c-4.5,18.2-10.2,36.1-17,53.6c-6.8,17.5-14.8,34.5-24.1,50.9l0,0l0,0l-33.3,47.7l-33.4,47.7l0,0l0,0c-4.8,5.7-9.3,11.8-13.5,17.9
			c-4.2,6.2-8.2,12.5-12,19c-7.5,13-14.1,26.5-19.4,40.5c-2.7,7-5,14.2-6.9,21.4c-1.9,7.2-3.5,14.6-4.6,22
			c-1.1,7.4-1.8,14.9-1.9,22.4c-0.1,3.8,0,7.5,0.2,11.3c0.1,1.9,0.1,3.8,0.3,5.6c0.2,1.9,0.4,3.7,1.1,5.5c-0.7-1.8-0.9-3.6-1.2-5.5
			c-0.2-1.9-0.3-3.8-0.4-5.6c-0.2-3.8-0.4-7.5-0.3-11.3c0-7.5,0.6-15.1,1.6-22.5c2-14.9,5.9-29.6,11.1-43.7
			c5.2-14.1,11.7-27.8,19.2-40.9c3.7-6.5,7.7-13,12-19.2c4.3-6.2,8.7-12.3,13.6-18.1l-0.1,0.1l33.3-47.8l33.4-47.7l0,0.1
			c9.3-16.2,17.2-33.2,24.1-50.6c6.8-17.4,12.7-35.2,17.3-53.3c0.6-2.3,1.1-4.5,1.6-6.8c0.5-2.3,0.9-4.6,1.4-6.9
			c1-4.6,2-9.2,3.2-13.7c2.3-9.1,5-18.1,8.3-26.9c3.3-8.8,7.1-17.4,11.7-25.6c2.3-4.1,4.8-8.1,7.6-11.9c1.4-1.9,2.8-3.7,4.4-5.5
			C302.9,55.3,304.5,53.6,306.3,52.1z"/>
	</g>
	<g>
		<path fill="#906B65" d="M392.3,203.3c-2.7-2-5-4.5-7.1-7.1c-2.1-2.7-3.9-5.5-5.4-8.5c-3-6-4.8-12.6-5.6-19.3
			c-0.4-3.4-0.4-6.7-0.3-10.1c0.2-3.4,0.5-6.7,1.1-10c1.1-6.6,3-13.1,5.5-19.4c0.6-1.6,1.1-3.1,1.6-4.7c0.5-1.6,1.1-3.2,1.8-4.7
			c1.3-3.1,2.8-6.2,4.4-9.1c3.3-5.9,7.3-11.4,12.1-16.2c4.7-4.8,10.2-8.8,16.2-11.9c3-1.5,6.2-2.7,9.4-3.7c3.2-1,6.5-1.6,9.8-2.1
			c-3.3,0.6-6.6,1.3-9.8,2.4c-3.2,1.1-6.3,2.4-9.2,3.9c-5.9,3.1-11.3,7.2-15.9,12c-4.6,4.8-8.6,10.2-11.8,16.1
			c-1.6,2.9-3.1,5.9-4.3,9c-0.6,1.5-1.2,3.1-1.7,4.7c-0.5,1.6-1.1,3.2-1.6,4.8c-2.4,6.2-4.3,12.7-5.5,19.2c-0.6,3.3-0.9,6.6-1.2,9.9
			c-0.1,3.3-0.1,6.7,0.2,10c0.7,6.6,2.3,13.2,5.3,19.2c1.4,3,3.2,5.9,5.2,8.6C387.4,198.7,389.7,201.3,392.3,203.3z"/>
	</g>
	<path fill="#EFEEEC" d="M433.3,80.4c0,0,19.7-5,32.6,6.6l22.9,26.8c0,0,16.3,19,7.4,46.6c0,0-17.9,47.1-41.6,51.1
		c0,0-21.1,2.9-38.4,0c0,0-30.8-2.5-35.7-43.6c-0.3-2.1-0.3-4.2-0.1-6.3c0.8-9.3,4.1-36.7,14.8-50.8
		C395.2,110.7,409.1,84.6,433.3,80.4z"/>
	<g>
		<path fill="#848484" d="M479.9,139.6c-5.5,0.8-10.5,2.9-14.8,5.9c-4.2,3-7.5,7.1-9.8,11.8c-2.3,4.6-3.6,9.8-4.5,15.1
			c-0.8,5.3-1.2,10.7-1.5,16.3c-1.3-5.4-1.9-11-1.6-16.6c0.2-2.8,0.5-5.6,1.2-8.4c0.6-2.8,1.6-5.5,2.9-8.1
			c2.5-5.2,6.6-9.8,11.7-12.6C468.5,140.1,474.4,138.8,479.9,139.6z"/>
	</g>
	<g>
		<path fill="#906B65" d="M357.7,34.9c-5.1-0.1-10.1,1.3-14.7,3.2c-4.6,2-9,4.6-13,7.7c-4,3.1-7.7,6.6-11,10.4
			c-0.9,0.9-1.6,1.9-2.5,2.9c-0.8,1-1.6,1.9-2.4,3l-2.3,3l-2.1,3.1c-0.7,1-1.4,2.1-2.1,3.2l-2,3.2c-1.2,2.2-2.5,4.4-3.7,6.6
			c-2.3,4.5-4.5,9.1-6.5,13.7c-4,9.3-7.3,18.9-10.1,28.6c-1.4,4.9-2.7,9.7-3.9,14.7c-1.2,4.9-2.5,9.8-3.9,14.7
			c-2.7,9.8-5.5,19.5-8.4,29.2c-1.5,4.8-3,9.7-4.6,14.5l-2.4,7.2l-2.5,7.2l-1.2,3.6l-1.3,3.6l-2.6,7.1l-2.8,7.1
			c-0.9,2.4-1.8,4.7-2.9,7l-3,7c-1,2.3-2.1,4.6-3.2,6.9l-1.6,3.4c-0.5,1.1-1.2,2.3-1.7,3.4c-1.2,2.2-2.3,4.5-3.5,6.7l-15.3,26.3
			l-30.6,52.5l-15.3,26.3c-5,8.8-10,17.6-15,26.4l-14.9,26.5l-7.3,13.3c-2.4,4.4-4.9,8.9-7,13.4l0,0l0,0c-3.1,5.8-5.9,11.8-8.7,17.8
			c-2.7,6-5.3,12.1-7.6,18.3c-2.3,6.2-4.4,12.4-5.9,18.9c-0.8,3.2-1.4,6.4-1.8,9.7c-0.3,3.3-0.4,6.6,0.1,9.9
			c-0.6-3.3-0.5-6.6-0.2-9.9c0.3-3.3,1-6.5,1.7-9.8c1.5-6.4,3.6-12.7,5.8-18.9c2.3-6.2,4.8-12.3,7.5-18.3c2.7-6,5.5-12,8.6-17.8l0,0
			c2.2-4.6,4.6-9,7-13.5l7.3-13.3l14.8-26.5c5-8.8,9.9-17.7,14.9-26.5l15.2-26.3l30.4-52.6l15.2-26.3c1.2-2.2,2.4-4.5,3.5-6.7
			c0.6-1.1,1.2-2.2,1.7-3.4l1.6-3.4c1.1-2.3,2.2-4.6,3.2-6.9l3-7c1-2.3,1.9-4.7,2.9-7l2.8-7.1l2.6-7.1l1.3-3.6l1.3-3.6l2.5-7.2
			l2.4-7.2c1.6-4.8,3.1-9.6,4.6-14.5c3-9.7,5.8-19.4,8.5-29.2c1.3-4.9,2.6-9.8,3.9-14.7c1.2-4.9,2.6-9.8,3.9-14.7
			c2.9-9.7,6.2-19.3,10.2-28.6c2-4.7,4.2-9.2,6.5-13.7c1.2-2.3,2.5-4.4,3.7-6.6l2-3.2c0.7-1.1,1.3-2.2,2.1-3.2l2.2-3.1l2.3-3
			c0.7-1,1.6-2,2.4-3c0.8-1,1.6-2,2.5-2.9c3.4-3.8,7.1-7.3,11.1-10.4c4-3.1,8.4-5.7,13.1-7.7C347.6,36.1,352.6,34.8,357.7,34.9z"/>
	</g>
	<g>
		<path fill="#926C64" d="M197.8,368.9c-0.5,11.3-0.3,22.6,0.8,33.7c0.6,5.5,1.4,11,2.6,16.3c1.2,5.3,2.9,10.5,5.2,15.4
			c2.3,4.8,5.3,9.3,9.1,12.9c3.8,3.6,8.4,6.3,13.4,8c1.3,0.4,2.6,0.8,3.9,1.1c1.3,0.3,2.6,0.6,4,0.7c2.7,0.4,5.4,0.6,8.2,0.6
			c5.5,0.1,11.1-0.5,16.8-1.3c-5.3,2.1-10.9,3.5-16.6,4.3c-0.7,0.1-1.4,0.2-2.2,0.2c-0.7,0.1-1.4,0.1-2.2,0.2c-1.5,0-2.9,0.1-4.4,0
			c-2.9-0.1-5.9-0.5-8.8-1.2c-5.8-1.4-11.4-4.3-15.9-8.3c-2.3-2-4.3-4.3-6.1-6.7c-1.8-2.4-3.3-5-4.6-7.7c-2.6-5.4-4.3-11-5.4-16.8
			c-1.1-5.7-1.7-11.5-1.8-17.2c-0.1-5.8,0.2-11.5,0.8-17.2C195.4,380,196.3,374.4,197.8,368.9z"/>
	</g>
	<g>
		<path fill="#926C64" d="M357.7,192c-5.7-1-11.3-1.8-16.9-2.2c-5.6-0.4-11.2-0.3-16.5,0.8c-5.3,1-10.2,3.4-13.8,7.3
			c-1.8,1.9-3.2,4.3-4.3,6.9c-1.2,2.5-1.8,5.3-2.5,8.1c-0.2-2.9-0.1-5.8,0.6-8.7l0.3-1.1c0.1-0.4,0.2-0.7,0.4-1.1
			c0.3-0.7,0.5-1.4,0.8-2.1c0.3-0.7,0.7-1.4,1-2c0.4-0.7,0.8-1.3,1.3-1.9c1.8-2.5,4.2-4.6,6.9-6.1c2.7-1.5,5.6-2.6,8.6-3.1
			c5.9-1.2,11.9-0.9,17.7,0.1C346.9,187.7,352.5,189.4,357.7,192z"/>
	</g>
	<g>
		<path fill="#CFCECE" d="M479.9,111.9c-5.4-0.1-10.7,0.7-15.9,2.1c-2.6,0.7-5.1,1.6-7.6,2.6c-2.4,1.1-4.9,2.2-7.1,3.6
			c-4.6,2.8-8.8,6.1-12.3,10.1c-3.5,4-6.5,8.5-8.8,13.3c-2.4,4.8-4.1,9.9-5.4,15c-1.4,5.2-2,10.5-2.6,15.8
			c-1.7,10.6,1.2,21.7,7.9,30.2c-3.5-4.1-6.1-9-7.6-14.1c-0.7-2.6-1.2-5.3-1.4-8c-0.1-1.4,0-2.7,0.1-4.1l0.2-4
			c0.9-10.7,3.2-21.5,7.8-31.2c2.4-4.8,5.4-9.4,9-13.4c3.6-4,7.9-7.5,12.6-10.2C458.3,114.1,469.2,111.4,479.9,111.9z"/>
	</g>
</g>
</svg>
